<mxfile host="app.diagrams.net" agent="Mozilla/5.0 (Windows NT 10.0; Win64; x64) AppleWebKit/537.36 (KHTML, like Gecko) Chrome/129.0.0.0 Safari/537.36" version="24.7.17">
  <diagram name="Page-1" id="a6aSBxeeKrqUl_VkNYPE">
    <mxGraphModel dx="1434" dy="1838" grid="1" gridSize="10" guides="1" tooltips="1" connect="1" arrows="1" fold="1" page="1" pageScale="1" pageWidth="850" pageHeight="1100" math="0" shadow="0">
      <root>
        <mxCell id="0" />
        <mxCell id="1" parent="0" />
        <mxCell id="kwTEYny1Vbw_1VsmgiS4-12" value="Data Prep Script (Python)" style="whiteSpace=wrap;html=1;aspect=fixed;fillColor=#e1d5e7;strokeColor=#9673a6;fontStyle=1" vertex="1" parent="1">
          <mxGeometry x="560" y="290" width="80" height="80" as="geometry" />
        </mxCell>
        <mxCell id="kwTEYny1Vbw_1VsmgiS4-13" value="" style="endArrow=classic;html=1;rounded=0;entryX=0;entryY=0.5;entryDx=0;entryDy=0;exitX=1;exitY=0.5;exitDx=0;exitDy=0;fillColor=#e1d5e7;strokeColor=#9673a6;fontStyle=1" edge="1" parent="1" source="kwTEYny1Vbw_1VsmgiS4-12" target="kwTEYny1Vbw_1VsmgiS4-10">
          <mxGeometry width="50" height="50" relative="1" as="geometry">
            <mxPoint x="400" y="370" as="sourcePoint" />
            <mxPoint x="450" y="320" as="targetPoint" />
          </mxGeometry>
        </mxCell>
        <mxCell id="kwTEYny1Vbw_1VsmgiS4-14" value="Input" style="edgeLabel;html=1;align=center;verticalAlign=middle;resizable=0;points=[];fontStyle=1" vertex="1" connectable="0" parent="kwTEYny1Vbw_1VsmgiS4-13">
          <mxGeometry x="-0.1143" relative="1" as="geometry">
            <mxPoint as="offset" />
          </mxGeometry>
        </mxCell>
        <mxCell id="kwTEYny1Vbw_1VsmgiS4-18" value="" style="swimlane;startSize=0;fillColor=#e1d5e7;strokeColor=#9673a6;fontStyle=1" vertex="1" parent="1">
          <mxGeometry x="560" y="420" width="270" height="120" as="geometry">
            <mxRectangle x="560" y="420" width="50" height="40" as="alternateBounds" />
          </mxGeometry>
        </mxCell>
        <mxCell id="kwTEYny1Vbw_1VsmgiS4-15" value="Sightings&lt;div&gt;CSV&lt;/div&gt;" style="whiteSpace=wrap;html=1;aspect=fixed;fillColor=#e1d5e7;strokeColor=#9673a6;fontStyle=1" vertex="1" parent="kwTEYny1Vbw_1VsmgiS4-18">
          <mxGeometry x="30" y="40" width="60" height="60" as="geometry" />
        </mxCell>
        <mxCell id="kwTEYny1Vbw_1VsmgiS4-16" value="Common Name&lt;div&gt;CSV&lt;/div&gt;" style="whiteSpace=wrap;html=1;aspect=fixed;fillColor=#e1d5e7;strokeColor=#9673a6;fontStyle=1" vertex="1" parent="kwTEYny1Vbw_1VsmgiS4-18">
          <mxGeometry x="110" y="40" width="60" height="60" as="geometry" />
        </mxCell>
        <mxCell id="kwTEYny1Vbw_1VsmgiS4-17" value="Scientific Name CSV" style="whiteSpace=wrap;html=1;aspect=fixed;fillColor=#e1d5e7;strokeColor=#9673a6;fontStyle=1" vertex="1" parent="kwTEYny1Vbw_1VsmgiS4-18">
          <mxGeometry x="190" y="40" width="60" height="60" as="geometry" />
        </mxCell>
        <mxCell id="kwTEYny1Vbw_1VsmgiS4-20" value="Simplified, Normalized Dataframes" style="text;html=1;align=center;verticalAlign=middle;whiteSpace=wrap;rounded=0;fontStyle=1" vertex="1" parent="kwTEYny1Vbw_1VsmgiS4-18">
          <mxGeometry x="37.5" y="10" width="195" height="30" as="geometry" />
        </mxCell>
        <mxCell id="kwTEYny1Vbw_1VsmgiS4-21" value="" style="endArrow=classic;html=1;rounded=0;exitX=1;exitY=1;exitDx=0;exitDy=0;entryX=0.5;entryY=0;entryDx=0;entryDy=0;fillColor=#e1d5e7;strokeColor=#9673a6;fontStyle=1" edge="1" parent="1" source="kwTEYny1Vbw_1VsmgiS4-12" target="kwTEYny1Vbw_1VsmgiS4-18">
          <mxGeometry width="50" height="50" relative="1" as="geometry">
            <mxPoint x="360" y="320" as="sourcePoint" />
            <mxPoint x="410" y="270" as="targetPoint" />
          </mxGeometry>
        </mxCell>
        <mxCell id="kwTEYny1Vbw_1VsmgiS4-22" value="Output" style="edgeLabel;html=1;align=center;verticalAlign=middle;resizable=0;points=[];fontStyle=1" vertex="1" connectable="0" parent="kwTEYny1Vbw_1VsmgiS4-21">
          <mxGeometry x="0.179" y="1" relative="1" as="geometry">
            <mxPoint as="offset" />
          </mxGeometry>
        </mxCell>
        <mxCell id="kwTEYny1Vbw_1VsmgiS4-26" value="SQL Database" style="whiteSpace=wrap;html=1;aspect=fixed;fillColor=#d5e8d4;strokeColor=#82b366;fontStyle=1" vertex="1" parent="1">
          <mxGeometry x="400" y="440" width="80" height="80" as="geometry" />
        </mxCell>
        <mxCell id="kwTEYny1Vbw_1VsmgiS4-27" value="Flask API&lt;div&gt;(Python)&lt;/div&gt;" style="whiteSpace=wrap;html=1;aspect=fixed;fillColor=#d5e8d4;strokeColor=#82b366;fontStyle=1" vertex="1" parent="1">
          <mxGeometry x="200" y="440" width="80" height="80" as="geometry" />
        </mxCell>
        <mxCell id="kwTEYny1Vbw_1VsmgiS4-30" value="" style="swimlane;startSize=0;fillColor=#d5e8d4;strokeColor=#82b366;fontStyle=1" vertex="1" parent="1">
          <mxGeometry x="175" y="50" width="130" height="260" as="geometry">
            <mxRectangle x="175" y="50" width="50" height="40" as="alternateBounds" />
          </mxGeometry>
        </mxCell>
        <mxCell id="kwTEYny1Vbw_1VsmgiS4-28" value="HTML" style="whiteSpace=wrap;html=1;aspect=fixed;fillColor=#d5e8d4;strokeColor=#82b366;fontStyle=1" vertex="1" parent="kwTEYny1Vbw_1VsmgiS4-30">
          <mxGeometry x="25" y="50" width="80" height="80" as="geometry" />
        </mxCell>
        <mxCell id="kwTEYny1Vbw_1VsmgiS4-29" value="JavaScript" style="whiteSpace=wrap;html=1;aspect=fixed;fillColor=#d5e8d4;strokeColor=#82b366;fontStyle=1" vertex="1" parent="kwTEYny1Vbw_1VsmgiS4-30">
          <mxGeometry x="25" y="160" width="80" height="80" as="geometry" />
        </mxCell>
        <mxCell id="kwTEYny1Vbw_1VsmgiS4-31" value="Web Site" style="text;html=1;align=center;verticalAlign=middle;whiteSpace=wrap;rounded=0;fontStyle=1" vertex="1" parent="kwTEYny1Vbw_1VsmgiS4-30">
          <mxGeometry x="35" y="10" width="60" height="30" as="geometry" />
        </mxCell>
        <mxCell id="kwTEYny1Vbw_1VsmgiS4-32" value="" style="endArrow=classic;startArrow=classic;html=1;rounded=0;entryX=0.5;entryY=0;entryDx=0;entryDy=0;exitX=0.5;exitY=1;exitDx=0;exitDy=0;fillColor=#d5e8d4;strokeColor=#82b366;fontStyle=1" edge="1" parent="kwTEYny1Vbw_1VsmgiS4-30" source="kwTEYny1Vbw_1VsmgiS4-28" target="kwTEYny1Vbw_1VsmgiS4-29">
          <mxGeometry width="50" height="50" relative="1" as="geometry">
            <mxPoint x="60" y="340" as="sourcePoint" />
            <mxPoint x="110" y="290" as="targetPoint" />
          </mxGeometry>
        </mxCell>
        <mxCell id="kwTEYny1Vbw_1VsmgiS4-33" value="Request&lt;div&gt;Data&lt;/div&gt;" style="endArrow=classic;html=1;rounded=0;exitX=0.5;exitY=1;exitDx=0;exitDy=0;entryX=0.5;entryY=0;entryDx=0;entryDy=0;fillColor=#d5e8d4;strokeColor=#82b366;fontStyle=1" edge="1" parent="1" source="kwTEYny1Vbw_1VsmgiS4-29" target="kwTEYny1Vbw_1VsmgiS4-27">
          <mxGeometry width="50" height="50" relative="1" as="geometry">
            <mxPoint x="400" y="370" as="sourcePoint" />
            <mxPoint x="450" y="320" as="targetPoint" />
          </mxGeometry>
        </mxCell>
        <mxCell id="kwTEYny1Vbw_1VsmgiS4-34" value="Request&lt;div&gt;Data&lt;/div&gt;" style="endArrow=classic;html=1;rounded=0;exitX=1;exitY=0.5;exitDx=0;exitDy=0;entryX=0;entryY=0.5;entryDx=0;entryDy=0;fillColor=#d5e8d4;strokeColor=#82b366;fontStyle=1" edge="1" parent="1" source="kwTEYny1Vbw_1VsmgiS4-27" target="kwTEYny1Vbw_1VsmgiS4-26">
          <mxGeometry width="50" height="50" relative="1" as="geometry">
            <mxPoint x="310" y="640" as="sourcePoint" />
            <mxPoint x="360" y="590" as="targetPoint" />
          </mxGeometry>
        </mxCell>
        <mxCell id="kwTEYny1Vbw_1VsmgiS4-35" value="Import&lt;div&gt;to Tables&lt;/div&gt;" style="endArrow=classic;html=1;rounded=0;fillColor=#e1d5e7;strokeColor=#9673a6;exitX=1;exitY=0.5;exitDx=0;exitDy=0;entryX=0;entryY=0.5;entryDx=0;entryDy=0;fontStyle=1" edge="1" parent="1" source="kwTEYny1Vbw_1VsmgiS4-26" target="kwTEYny1Vbw_1VsmgiS4-18">
          <mxGeometry width="50" height="50" relative="1" as="geometry">
            <mxPoint x="450" y="610" as="sourcePoint" />
            <mxPoint x="540" y="620" as="targetPoint" />
          </mxGeometry>
        </mxCell>
        <mxCell id="kwTEYny1Vbw_1VsmgiS4-36" value="" style="swimlane;startSize=0;fillColor=#dae8fc;strokeColor=#6c8ebf;fontStyle=1" vertex="1" parent="1">
          <mxGeometry x="20" width="130" height="480" as="geometry">
            <mxRectangle x="20" y="-60" width="50" height="40" as="alternateBounds" />
          </mxGeometry>
        </mxCell>
        <mxCell id="kwTEYny1Vbw_1VsmgiS4-37" value="External&lt;div&gt;Dependencies&lt;/div&gt;" style="text;html=1;align=center;verticalAlign=middle;whiteSpace=wrap;rounded=0;fontStyle=1" vertex="1" parent="kwTEYny1Vbw_1VsmgiS4-36">
          <mxGeometry x="-20" y="10" width="170" height="30" as="geometry" />
        </mxCell>
        <mxCell id="kwTEYny1Vbw_1VsmgiS4-40" value="Plotly" style="whiteSpace=wrap;html=1;aspect=fixed;fillColor=#dae8fc;strokeColor=#6c8ebf;fontStyle=1" vertex="1" parent="kwTEYny1Vbw_1VsmgiS4-36">
          <mxGeometry x="30" y="210" width="70" height="70" as="geometry" />
        </mxCell>
        <mxCell id="kwTEYny1Vbw_1VsmgiS4-39" value="D3" style="whiteSpace=wrap;html=1;aspect=fixed;fillColor=#dae8fc;strokeColor=#6c8ebf;fontStyle=1" vertex="1" parent="kwTEYny1Vbw_1VsmgiS4-36">
          <mxGeometry x="30" y="290" width="70" height="70" as="geometry" />
        </mxCell>
        <mxCell id="kwTEYny1Vbw_1VsmgiS4-43" value="JS-Datepicker" style="whiteSpace=wrap;html=1;aspect=fixed;fillColor=#dae8fc;strokeColor=#6c8ebf;fontStyle=1" vertex="1" parent="kwTEYny1Vbw_1VsmgiS4-36">
          <mxGeometry x="30" y="370" width="70" height="70" as="geometry" />
        </mxCell>
        <mxCell id="kwTEYny1Vbw_1VsmgiS4-38" value="Leaflet" style="whiteSpace=wrap;html=1;aspect=fixed;fillColor=#dae8fc;strokeColor=#6c8ebf;fontStyle=1" vertex="1" parent="kwTEYny1Vbw_1VsmgiS4-36">
          <mxGeometry x="30" y="50" width="70" height="70" as="geometry" />
        </mxCell>
        <mxCell id="kwTEYny1Vbw_1VsmgiS4-41" value="Marker&lt;div&gt;Cluster&lt;/div&gt;" style="whiteSpace=wrap;html=1;aspect=fixed;fillColor=#dae8fc;strokeColor=#6c8ebf;fontStyle=1" vertex="1" parent="kwTEYny1Vbw_1VsmgiS4-36">
          <mxGeometry x="30" y="130" width="70" height="70" as="geometry" />
        </mxCell>
        <mxCell id="kwTEYny1Vbw_1VsmgiS4-44" value="Admin" style="shape=umlActor;verticalLabelPosition=bottom;verticalAlign=top;html=1;outlineConnect=0;fontStyle=1" vertex="1" parent="1">
          <mxGeometry x="425" y="150" width="30" height="60" as="geometry" />
        </mxCell>
        <mxCell id="kwTEYny1Vbw_1VsmgiS4-45" value="Download" style="endArrow=classic;html=1;rounded=0;entryX=0;entryY=0;entryDx=0;entryDy=0;fillColor=#e1d5e7;strokeColor=#9673a6;fontStyle=1" edge="1" parent="1" source="kwTEYny1Vbw_1VsmgiS4-44" target="kwTEYny1Vbw_1VsmgiS4-10">
          <mxGeometry width="50" height="50" relative="1" as="geometry">
            <mxPoint x="400" y="370" as="sourcePoint" />
            <mxPoint x="450" y="320" as="targetPoint" />
          </mxGeometry>
        </mxCell>
        <mxCell id="kwTEYny1Vbw_1VsmgiS4-46" value="" style="swimlane;startSize=0;fillColor=#dae8fc;strokeColor=#6c8ebf;fillStyle=hatch;fontStyle=1" vertex="1" parent="1">
          <mxGeometry x="710" width="120" height="390" as="geometry">
            <mxRectangle x="690" width="50" height="40" as="alternateBounds" />
          </mxGeometry>
        </mxCell>
        <mxCell id="kwTEYny1Vbw_1VsmgiS4-2" value="eBird&amp;nbsp;&lt;span style=&quot;background-color: initial;&quot;&gt;Site&lt;/span&gt;" style="whiteSpace=wrap;html=1;aspect=fixed;fillColor=#dae8fc;strokeColor=#6c8ebf;fontStyle=1" vertex="1" parent="kwTEYny1Vbw_1VsmgiS4-46">
          <mxGeometry x="20" y="170" width="80" height="80" as="geometry" />
        </mxCell>
        <mxCell id="kwTEYny1Vbw_1VsmgiS4-1" value="eBird Database" style="whiteSpace=wrap;html=1;aspect=fixed;fillColor=#dae8fc;strokeColor=#6c8ebf;fontStyle=1" vertex="1" parent="kwTEYny1Vbw_1VsmgiS4-46">
          <mxGeometry x="20" y="50" width="80" height="80" as="geometry" />
        </mxCell>
        <mxCell id="kwTEYny1Vbw_1VsmgiS4-5" value="" style="endArrow=classic;html=1;rounded=0;exitX=0.5;exitY=0;exitDx=0;exitDy=0;entryX=0.5;entryY=1;entryDx=0;entryDy=0;fillColor=#dae8fc;strokeColor=#6c8ebf;fontStyle=1" edge="1" parent="kwTEYny1Vbw_1VsmgiS4-46" source="kwTEYny1Vbw_1VsmgiS4-2" target="kwTEYny1Vbw_1VsmgiS4-1">
          <mxGeometry width="50" height="50" relative="1" as="geometry">
            <mxPoint x="-330" y="410" as="sourcePoint" />
            <mxPoint x="-280" y="360" as="targetPoint" />
          </mxGeometry>
        </mxCell>
        <mxCell id="kwTEYny1Vbw_1VsmgiS4-47" value="eBird" style="text;html=1;align=center;verticalAlign=middle;whiteSpace=wrap;rounded=0;fontStyle=1" vertex="1" parent="kwTEYny1Vbw_1VsmgiS4-46">
          <mxGeometry x="30" y="10" width="60" height="30" as="geometry" />
        </mxCell>
        <mxCell id="kwTEYny1Vbw_1VsmgiS4-10" value="eBird&lt;div&gt;Snapshot&lt;/div&gt;&lt;div&gt;CSV&lt;/div&gt;" style="whiteSpace=wrap;html=1;aspect=fixed;fillColor=#dae8fc;strokeColor=#6c8ebf;fontStyle=1" vertex="1" parent="kwTEYny1Vbw_1VsmgiS4-46">
          <mxGeometry x="20" y="290" width="80" height="80" as="geometry" />
        </mxCell>
        <mxCell id="kwTEYny1Vbw_1VsmgiS4-8" value="" style="endArrow=classic;html=1;rounded=0;exitX=0.5;exitY=1;exitDx=0;exitDy=0;entryX=0.5;entryY=0;entryDx=0;entryDy=0;fillColor=#dae8fc;strokeColor=#6c8ebf;fontStyle=1" edge="1" parent="kwTEYny1Vbw_1VsmgiS4-46" source="kwTEYny1Vbw_1VsmgiS4-2" target="kwTEYny1Vbw_1VsmgiS4-10">
          <mxGeometry width="50" height="50" relative="1" as="geometry">
            <mxPoint x="-40.9375" y="340" as="sourcePoint" />
            <mxPoint x="60" y="280" as="targetPoint" />
          </mxGeometry>
        </mxCell>
        <mxCell id="kwTEYny1Vbw_1VsmgiS4-48" value="Run Script" style="endArrow=classic;html=1;rounded=0;entryX=0;entryY=0;entryDx=0;entryDy=0;fillColor=#e1d5e7;strokeColor=#9673a6;fontStyle=1" edge="1" parent="1" target="kwTEYny1Vbw_1VsmgiS4-12">
          <mxGeometry width="50" height="50" relative="1" as="geometry">
            <mxPoint x="460" y="210" as="sourcePoint" />
            <mxPoint x="450" y="220" as="targetPoint" />
          </mxGeometry>
        </mxCell>
        <mxCell id="kwTEYny1Vbw_1VsmgiS4-50" value="User" style="shape=umlActor;verticalLabelPosition=bottom;verticalAlign=top;html=1;outlineConnect=0;fontStyle=1" vertex="1" parent="1">
          <mxGeometry x="360" y="150" width="30" height="60" as="geometry" />
        </mxCell>
        <mxCell id="kwTEYny1Vbw_1VsmgiS4-51" value="" style="endArrow=classic;html=1;rounded=0;entryX=1;entryY=0.5;entryDx=0;entryDy=0;fontStyle=1" edge="1" parent="1" source="kwTEYny1Vbw_1VsmgiS4-50" target="kwTEYny1Vbw_1VsmgiS4-30">
          <mxGeometry width="50" height="50" relative="1" as="geometry">
            <mxPoint x="400" y="370" as="sourcePoint" />
            <mxPoint x="450" y="320" as="targetPoint" />
          </mxGeometry>
        </mxCell>
        <mxCell id="kwTEYny1Vbw_1VsmgiS4-52" value="" style="endArrow=classic;html=1;rounded=0;exitX=0;exitY=0.5;exitDx=0;exitDy=0;entryX=0.985;entryY=0.375;entryDx=0;entryDy=0;fillColor=#d5e8d4;strokeColor=#82b366;entryPerimeter=0;fontStyle=1" edge="1" parent="1" source="kwTEYny1Vbw_1VsmgiS4-30" target="kwTEYny1Vbw_1VsmgiS4-36">
          <mxGeometry width="50" height="50" relative="1" as="geometry">
            <mxPoint x="470" y="90" as="sourcePoint" />
            <mxPoint x="520" y="40" as="targetPoint" />
          </mxGeometry>
        </mxCell>
        <mxCell id="kwTEYny1Vbw_1VsmgiS4-53" value="External" style="whiteSpace=wrap;html=1;aspect=fixed;fillColor=#dae8fc;strokeColor=#6c8ebf;fontStyle=1" vertex="1" parent="1">
          <mxGeometry x="280" y="-80" width="80" height="80" as="geometry" />
        </mxCell>
        <mxCell id="kwTEYny1Vbw_1VsmgiS4-54" value="Administration" style="whiteSpace=wrap;html=1;aspect=fixed;fillColor=#e1d5e7;strokeColor=#9673a6;fontStyle=1" vertex="1" parent="1">
          <mxGeometry x="385" y="-80" width="80" height="80" as="geometry" />
        </mxCell>
        <mxCell id="kwTEYny1Vbw_1VsmgiS4-55" value="Deliverable" style="whiteSpace=wrap;html=1;aspect=fixed;fillColor=#d5e8d4;strokeColor=#82b366;fontStyle=1" vertex="1" parent="1">
          <mxGeometry x="490" y="-80" width="80" height="80" as="geometry" />
        </mxCell>
        <mxCell id="kwTEYny1Vbw_1VsmgiS4-59" value="Color Coding" style="text;html=1;align=center;verticalAlign=middle;whiteSpace=wrap;rounded=0;fontStyle=1" vertex="1" parent="1">
          <mxGeometry x="317.5" y="-110" width="215" height="30" as="geometry" />
        </mxCell>
        <mxCell id="kwTEYny1Vbw_1VsmgiS4-61" value="Import CSVs&lt;div&gt;to Database&lt;/div&gt;" style="endArrow=none;html=1;rounded=0;fillColor=#e1d5e7;strokeColor=#9673a6;fontStyle=1" edge="1" parent="1">
          <mxGeometry width="50" height="50" relative="1" as="geometry">
            <mxPoint x="440" y="300" as="sourcePoint" />
            <mxPoint x="440" y="240" as="targetPoint" />
          </mxGeometry>
        </mxCell>
        <mxCell id="kwTEYny1Vbw_1VsmgiS4-63" value="" style="curved=1;endArrow=classic;html=1;rounded=0;entryX=0;entryY=0;entryDx=0;entryDy=0;fillColor=#e1d5e7;strokeColor=#9673a6;fontStyle=1" edge="1" parent="1" target="kwTEYny1Vbw_1VsmgiS4-18">
          <mxGeometry width="50" height="50" relative="1" as="geometry">
            <mxPoint x="440" y="300" as="sourcePoint" />
            <mxPoint x="532.5" y="340" as="targetPoint" />
            <Array as="points">
              <mxPoint x="440" y="390" />
            </Array>
          </mxGeometry>
        </mxCell>
        <mxCell id="kwTEYny1Vbw_1VsmgiS4-64" value="" style="curved=1;endArrow=classic;html=1;rounded=0;entryX=0.5;entryY=0;entryDx=0;entryDy=0;fillColor=#e1d5e7;strokeColor=#9673a6;fontStyle=1" edge="1" parent="1" target="kwTEYny1Vbw_1VsmgiS4-26">
          <mxGeometry width="50" height="50" relative="1" as="geometry">
            <mxPoint x="440" y="290" as="sourcePoint" />
            <mxPoint x="400" y="340" as="targetPoint" />
          </mxGeometry>
        </mxCell>
      </root>
    </mxGraphModel>
  </diagram>
</mxfile>
